<svg width="19" height="22" viewBox="0 0 19 22" fill="none" xmlns="http://www.w3.org/2000/svg">
<g clip-path="url(#clip0_103_406)">
<path d="M18.3333 18.2044C18.3333 19.2452 18.0349 20.138 17.4382 20.8828C16.8414 21.6276 16.1228 22 15.2826 22H3.05078C2.2105 22 1.49197 21.6276 0.895182 20.8828C0.298394 20.138 0 19.2452 0 18.2044C0 17.3928 0.0405816 16.6265 0.121745 15.9056C0.202908 15.1847 0.353299 14.459 0.572917 13.7285C0.792535 12.998 1.07183 12.3726 1.41081 11.8522C1.74978 11.3318 2.19857 10.9069 2.75716 10.5775C3.31576 10.248 3.9579 10.0833 4.68359 10.0833C5.93446 11.3056 7.42882 11.9167 9.16667 11.9167C10.9045 11.9167 12.3989 11.3056 13.6497 10.0833C14.3754 10.0833 15.0176 10.248 15.5762 10.5775C16.1348 10.9069 16.5836 11.3318 16.9225 11.8522C17.2615 12.3726 17.5408 12.998 17.7604 13.7285C17.98 14.459 18.1304 15.1847 18.2116 15.9056C18.2928 16.6265 18.3333 17.3928 18.3333 18.2044ZM14.6667 5.5C14.6667 7.01823 14.1296 8.31445 13.0553 9.38867C11.9811 10.4629 10.6849 11 9.16667 11C7.64844 11 6.35221 10.4629 5.278 9.38867C4.20378 8.31445 3.66667 7.01823 3.66667 5.5C3.66667 3.98177 4.20378 2.68555 5.278 1.61133C6.35221 0.537109 7.64844 0 9.16667 0C10.6849 0 11.9811 0.537109 13.0553 1.61133C14.1296 2.68555 14.6667 3.98177 14.6667 5.5Z" fill="black"/>
</g>
<defs>
<clipPath id="clip0_103_406">
<rect width="18.3333" height="22" fill="white"/>
</clipPath>
</defs>
</svg>
