<svg width="18" height="19" viewBox="0 0 18 19" fill="none" xmlns="http://www.w3.org/2000/svg">
<path d="M1.29995 0.0999756C1.00821 0.0999756 0.728424 0.215868 0.522134 0.422158C0.315844 0.628448 0.199951 0.908237 0.199951 1.19998C0.199951 1.49171 0.315844 1.7715 0.522134 1.97779C0.728424 2.18408 1.00821 2.29998 1.29995 2.29998H2.64195L2.97745 3.64418C2.98078 3.65965 2.98445 3.67506 2.98845 3.69038L4.48225 9.66338L3.49995 10.6446C2.11395 12.0306 3.09515 14.4 5.05535 14.4H14.5C14.7917 14.4 15.0715 14.2841 15.2778 14.0778C15.4841 13.8715 15.6 13.5917 15.6 13.3C15.6 13.0082 15.4841 12.7284 15.2778 12.5222C15.0715 12.3159 14.7917 12.2 14.5 12.2H5.05535L6.15535 11.1H13.4C13.6042 11.0999 13.8043 11.0429 13.978 10.9355C14.1517 10.828 14.2921 10.6744 14.3834 10.4917L17.6834 3.89168C17.7671 3.72401 17.8067 3.53772 17.7983 3.35048C17.7898 3.16324 17.7337 2.98126 17.6352 2.82181C17.5367 2.66236 17.399 2.53072 17.2354 2.43939C17.0717 2.34807 16.8874 2.30008 16.7 2.29998H4.90795L4.56695 0.932676C4.50736 0.694804 4.37 0.483665 4.17668 0.332797C3.98336 0.181928 3.74517 0.099982 3.49995 0.0999756H1.29995ZM15.6 17.15C15.6 17.5876 15.4261 18.0073 15.1167 18.3167C14.8072 18.6261 14.3876 18.8 13.95 18.8C13.5123 18.8 13.0927 18.6261 12.7832 18.3167C12.4738 18.0073 12.3 17.5876 12.3 17.15C12.3 16.7124 12.4738 16.2927 12.7832 15.9832C13.0927 15.6738 13.5123 15.5 13.95 15.5C14.3876 15.5 14.8072 15.6738 15.1167 15.9832C15.4261 16.2927 15.6 16.7124 15.6 17.15ZM5.14995 18.8C5.58756 18.8 6.00724 18.6261 6.31668 18.3167C6.62611 18.0073 6.79995 17.5876 6.79995 17.15C6.79995 16.7124 6.62611 16.2927 6.31668 15.9832C6.00724 15.6738 5.58756 15.5 5.14995 15.5C4.71234 15.5 4.29266 15.6738 3.98322 15.9832C3.67379 16.2927 3.49995 16.7124 3.49995 17.15C3.49995 17.5876 3.67379 18.0073 3.98322 18.3167C4.29266 18.6261 4.71234 18.8 5.14995 18.8V18.8Z" fill="black"/>
</svg>
